<?xml version="1.0" encoding="UTF-8"?>
<svg xmlns="http://www.w3.org/2000/svg" viewBox="0 0 199.18 11.07" height="14px">
  <path fill="#cc0c2f" d="M94.45 2.82h8.3v5.41h-8.3z"></path>
  <path fill="#fff" d="M86.16 2.84h8.3v5.4h-8.3z"></path>
  <path fill="#00174f" d="M86.16.14h16.59v2.69H86.16zm0 8.08h16.59v2.7H86.16zM9.02 1.53H5.29v9.4H3.73v-9.4H0V.14h9zM20.49 0a5.54 5.54 0 1 1 0 11.07 5.54 5.54 0 1 1 0-11.07zm0 9.65a4.05 4.05 0 0 0 4.21-4.11 4 4 0 0 0-4.21-4.12 4 4 0 0 0-4.2 4.12 4 4 0 0 0 4.2 4.11zm23.14 1.28h-1.55v-8.4l-3.32 4.18h-.25l-3.36-4.18v8.4h-1.58V.14h1.46l3.58 4.43L42.19.14h1.44zm18.83 0h-1.55v-8.4l-3.32 4.18h-.3l-3.31-4.18v8.4h-1.59V.14h1.46l3.58 4.43L61.02.14h1.44zM76.87.14h1.87l-4 5.09v5.69h-1.56v-5.7l-4-5.08h1.87l2.89 3.72zm43.8 10.79h-1.55v-4.7h-6v4.7h-1.55V.14h1.55v4.7h6V.14h1.55zm7.98 0h-1.55V.14h1.55zm7.91-1.39h4.87v1.39h-6.42V.14h1.55zm15.08-8.01h-4.21v3h4.21v1.39h-4.21v5h-1.55V.14h5.76zm6.98 9.4h-1.55V.14h1.55zm14.76-.74a9.45 9.45 0 0 1-4.11.89 5.45 5.45 0 0 1-5.74-5.47A5.59 5.59 0 0 1 169.29 0a8.78 8.78 0 0 1 3.84.92v1.56a8 8 0 0 0-3.84-1.06 4.12 4.12 0 1 0 .21 8.23 7.56 7.56 0 0 0 2.34-.43V7.01h-2.07V5.62h3.62zm12.02-8.66h-4.57v3.25h4.46v1.4h-4.41v3.35h4.71v1.39h-6.3V.14h6.12zm8.16-1.39c2.18 0 3.54 1.16 3.54 3a2.7 2.7 0 0 1-1.81 2.64 8.8 8.8 0 0 1 2.4 3c.46.74.73 1.11 1.47 2.13h-1.87l-1.42-2.21c-1.42-2.21-2.07-2.47-2.86-2.47h-.65v4.68h-1.55V.14zm-1.17 4.71h1c1.66 0 2.14-.85 2.12-1.76s-.62-1.63-2.12-1.63h-1z"></path>
</svg>
