<?xml version="1.0" encoding="UTF-8"?>
<svg xmlns="http://www.w3.org/2000/svg" id="Logo" viewBox="0 0 199.18 11.07">
  <defs>
    <style>.cls-1{fill:#cc0c2f;}.cls-2{fill:#fff;}.cls-3{fill:#00174f;}</style>
  </defs>
  <title>T_Flag_H_RGB_NO</title>
  <rect class="cls-1" x="94.45" y="2.82" width="8.3" height="5.41"></rect>
  <rect class="cls-2" x="86.16" y="2.84" width="8.3" height="5.4"></rect>
  <rect class="cls-3" x="86.16" y="0.14" width="16.59" height="2.69"></rect>
  <rect class="cls-3" x="86.16" y="8.22" width="16.59" height="2.7"></rect>
  <path class="cls-2" d="M15.73,8.75H12v9.4H10.44V8.75H6.71V7.36h9Z" transform="translate(-6.71 -7.22)"></path>
  <path class="cls-2" d="M27.2,7.22a5.54,5.54,0,1,1,0,11.07,5.54,5.54,0,1,1,0-11.07Zm0,9.65a4.05,4.05,0,0,0,4.21-4.11A4,4,0,0,0,27.2,8.64,4,4,0,0,0,23,12.76,4.05,4.05,0,0,0,27.2,16.87Z" transform="translate(-6.71 -7.22)"></path>
  <path class="cls-2" d="M50.34,18.15H48.79V9.75h0l-3.32,4.18h-.26L41.86,9.75h0v8.4H40.28V7.36h1.46l3.57,4.43L48.9,7.36h1.44Z" transform="translate(-6.71 -7.22)"></path>
  <path class="cls-2" d="M69.17,18.15H67.62V9.75h0l-3.32,4.18H64L60.69,9.75h0v8.4H59.1V7.36h1.46l3.58,4.43,3.59-4.43h1.44Z" transform="translate(-6.71 -7.22)"></path>
  <path class="cls-2" d="M83.58,7.36h1.86l-4,5.1v5.69H79.89V12.44l-4-5.08h1.87l2.89,3.72Z" transform="translate(-6.71 -7.22)"></path>
  <path class="cls-2" d="M127.38,18.15h-1.54v-4.7h-6v4.7h-1.55V7.36h1.55v4.7h6V7.36h1.54Z" transform="translate(-6.71 -7.22)"></path>
  <path class="cls-2" d="M135.36,18.15h-1.55V7.36h1.55Z" transform="translate(-6.71 -7.22)"></path>
  <path class="cls-2" d="M143.27,16.76h4.87v1.39h-6.42V7.36h1.55Z" transform="translate(-6.71 -7.22)"></path>
  <path class="cls-2" d="M158.35,8.75h-4.21v3h4.21v1.4h-4.21v5h-1.55V7.36h5.76Z" transform="translate(-6.71 -7.22)"></path>
  <path class="cls-2" d="M165.33,18.15h-1.55V7.36h1.55Z" transform="translate(-6.71 -7.22)"></path>
  <path class="cls-2" d="M180.09,17.41a9.5,9.5,0,0,1-4.12.88,5.45,5.45,0,0,1-5.74-5.47A5.59,5.59,0,0,1,176,7.22a8.85,8.85,0,0,1,3.85.92V9.7A8.13,8.13,0,0,0,176,8.64a4.12,4.12,0,1,0,.21,8.23,7.58,7.58,0,0,0,2.34-.43V14.23h-2.08V12.84h3.63Z" transform="translate(-6.71 -7.22)"></path>
  <path class="cls-2" d="M192.11,8.75h-4.57V12H192V13.4h-4.41v3.36h4.71v1.39H186V7.36h6.12Z" transform="translate(-6.71 -7.22)"></path>
  <path class="cls-2" d="M200.27,7.36c2.19,0,3.55,1.16,3.55,3A2.69,2.69,0,0,1,202,13a8.93,8.93,0,0,1,2.41,3c.46.74.72,1.1,1.47,2.13H204l-1.43-2.21c-1.42-2.22-2.07-2.47-2.86-2.47h-.65v4.68h-1.55V7.36Zm-1.17,4.72h1c1.66,0,2.13-.86,2.12-1.76s-.62-1.63-2.12-1.63h-1Z" transform="translate(-6.71 -7.22)"></path>
</svg>
